<?xml version="1.0" encoding="UTF-8" standalone="no"?>
<!-- Created with Inkscape (http://www.inkscape.org/) -->

<svg
   version="1.1"
   id="svg824"
   width="186"
   height="152"
   viewBox="0 0 186 152"
   sodipodi:docname="store.svg"
   inkscape:version="1.1.1 (3bf5ae0d25, 2021-09-20)"
   inkscape:export-filename="C:\Users\gaetanbrl\image.png"
   inkscape:export-xdpi="96"
   inkscape:export-ydpi="96"
   xmlns:inkscape="http://www.inkscape.org/namespaces/inkscape"
   xmlns:sodipodi="http://sodipodi.sourceforge.net/DTD/sodipodi-0.dtd"
   xmlns="http://www.w3.org/2000/svg"
   xmlns:svg="http://www.w3.org/2000/svg">
  <defs
     id="defs828" />
  <sodipodi:namedview
     id="namedview826"
     pagecolor="#505050"
     bordercolor="#eeeeee"
     borderopacity="0"
     inkscape:pageshadow="0"
     inkscape:pageopacity="0"
     inkscape:pagecheckerboard="0"
     showgrid="false"
     inkscape:zoom="0.9408707"
     inkscape:cx="-80.24482"
     inkscape:cy="-46.23377"
     inkscape:window-width="1920"
     inkscape:window-height="1017"
     inkscape:window-x="3832"
     inkscape:window-y="-8"
     inkscape:window-maximized="1"
     inkscape:current-layer="g830" />
  <g
     inkscape:groupmode="layer"
     inkscape:label="Image"
     id="g830">
    <g
       id="g1194"
       transform="matrix(0.30452949,0,0,0.30452949,22.957175,7.0144997)">
      <g
         id="g1126">
	<path
   style="fill:#71e2f0"
   d="M 230,0 C 102.974,0 0,102.975 0,230 0,334.881 70.201,423.366 166.179,451.03 L 451.93,169.388 C 425.331,71.77 336.047,0 230,0 Z"
   id="path1096" />

	<path
   style="fill:#38c6d9"
   d="m 460,230 c 0,-20.979 -2.825,-41.296 -8.087,-60.607 L 376.76,94.24 361.572,112.432 303.38,54.24 92.92,377.76 166.181,451.021 C 186.445,456.862 207.855,460 230,460 357.026,460 460,357.025 460,230 Z"
   id="path1098" />

	<rect
   x="156.62"
   y="54.240002"
   style="fill:#ffffff"
   width="146.75999"
   height="60"
   id="rect1100" />

	<polygon
   style="fill:#ffc61b"
   points="367.08,206.49 367.08,377.76 303.38,377.76 287.08,258.38 210,258.38 230,151.65 "
   id="polygon1102" />

	<polygon
   style="fill:#ffedb5"
   points="230,151.65 230,258.38 172.92,258.38 156.62,377.76 92.92,377.76 92.92,206.49 "
   id="polygon1104" />

	<polygon
   style="fill:#c2001b"
   points="376.76,94.24 376.76,181.65 340.07,191.65 303.38,181.65 283.38,132.945 303.38,94.24 "
   id="polygon1106" />

	<polygon
   style="fill:#ff0f27"
   points="303.38,94.24 303.38,181.65 266.69,191.65 230,181.65 210,132.945 230,94.24 "
   id="polygon1108" />

	<polygon
   style="fill:#c2001b"
   points="230,94.24 230,181.65 193.31,191.65 156.62,181.65 136.62,132.945 156.62,94.24 "
   id="polygon1110" />

	<polygon
   style="fill:#ff0f27"
   points="156.62,181.65 119.93,191.65 83.24,181.65 83.24,94.24 156.62,94.24 "
   id="polygon1112" />

	<path
   style="fill:#940030"
   d="M 156.62,181.65 H 230 c 0,20.26 -16.43,36.73 -36.69,36.73 -20.26,0 -36.69,-16.47 -36.69,-36.73 z"
   id="path1114" />

	<path
   style="fill:#940030"
   d="m 303.38,181.65 h 73.38 c 0,9.57 -3.67,18.3 -9.68,24.84 -6.7,7.31 -16.32,11.89 -27.01,11.89 -20.26,0 -36.69,-16.47 -36.69,-36.73 z"
   id="path1116" />

	<path
   style="fill:#c2001b"
   d="m 83.24,181.65 h 73.38 c 0,20.26 -16.43,36.73 -36.69,36.73 -10.69,0 -20.31,-4.58 -27.01,-11.89 -6.01,-6.54 -9.68,-15.27 -9.68,-24.84 z"
   id="path1118" />

	<path
   style="fill:#c2001b"
   d="m 230,181.65 h 73.38 c 0,20.26 -16.43,36.73 -36.69,36.73 -20.26,0 -36.69,-16.47 -36.69,-36.73 z"
   id="path1120" />

	<polygon
   style="fill:#ffedb5"
   points="303.38,377.76 230,377.76 210,303.07 230,248.38 303.38,248.38 "
   id="polygon1122" />

	<rect
   x="156.62"
   y="248.38"
   style="fill:#ffffff"
   width="73.379997"
   height="129.38"
   id="rect1124" />

</g>
      <g
         id="g1128">
</g>
      <g
         id="g1130">
</g>
      <g
         id="g1132">
</g>
      <g
         id="g1134">
</g>
      <g
         id="g1136">
</g>
      <g
         id="g1138">
</g>
      <g
         id="g1140">
</g>
      <g
         id="g1142">
</g>
      <g
         id="g1144">
</g>
      <g
         id="g1146">
</g>
      <g
         id="g1148">
</g>
      <g
         id="g1150">
</g>
      <g
         id="g1152">
</g>
      <g
         id="g1154">
</g>
      <g
         id="g1156">
</g>
    </g>
  </g>
</svg>
